#N canvas 497 128 650 470 10;
#N canvas 0 22 450 278 (subpatch) 0;
#X array \$0-data 50 float 3;
#A 0 -0.290661 -0.270661 -0.230661 -0.210661 -0.190661 -0.170661 -0.160661
-0.150661 -0.150661 -0.130661 -0.130661 -0.130661 -0.110661 -0.110661
-0.110661 -0.110661 -0.110661 -0.110661 -0.110661 -0.110661 -0.110661
-0.110661 -0.110661 -0.110661 -0.110661 -0.110661 -0.110661 -0.110661
-0.110661 -0.110661 -0.110661 -0.110661 -0.110661 -0.110661 -0.110661
-0.110661 -0.110661 -0.110661 -0.110661 -0.110661 -0.110661 -0.110661
-0.110661 -0.110661 -0.110661 -0.110661 -0.110661 -0.110661 -0.110661
-0.130661;
#X coords 0 1 50 -1 200 100 2 0 0;
#X restore 109 128 graph;
#X obj 16 -64 loadbang;
#X obj 497 -43 table \$0-hist;
#X obj 16 17 f \$0;
#X obj 95 75 print;
#X obj 148 -52 inlet dataIn;
#X obj 272 8 tabset \$0-data;
#X obj 318 107 bng 30 250 50 0 empty empty dump 32 7 0 12 -262144 -4160
-1;
#X obj 192 361 outlet data;
#X obj 191 332 tabdump \$0-data;
#X msg 238 33 print 1;
#X obj 169 75 arraycopy \$0-hist;
#X obj 145 8 f \$0;
#X msg 141 37 copy \$1-data;
#X obj 318 143 bng 30 250 50 0 empty empty keep 32 7 0 12 -262144 -4160
-1;
#X obj 318 209 bng 30 250 50 0 empty empty mutate 32 7 0 12 -262144
-4160 -1;
#X obj 434 66 iter;
#X obj 107 248 hsl 250 25 0 1 0 0 empty empty mutate_amount -2 -8 0
10 -262144 -1 -1 900 1;
#X floatatom 363 250 5 0 0 0 - - -;
#X obj 480 136 random 1e+06;
#X obj 480 159 / 1e+06;
#X obj 478 213 *;
#X obj 37 193 loadbang;
#X obj 438 253 +;
#X obj 430 317 tabwrite \$0-data;
#X obj 483 281 counter;
#X obj 434 98 t f b b;
#X obj 479 188 expr ($f1 * 2) - 1;
#X obj 429 26 tabdump \$0-hist;
#X obj 318 176 bng 30 250 50 0 empty empty back 32 7 0 12 -262144 -4160
-1;
#X obj 328 291 f \$0;
#X msg 324 320 copy \$1-hist;
#X obj 352 358 arraycopy \$0-data;
#X obj 33 333 length;
#X obj 95 13 length;
#X obj 168 -25 t b b l b l;
#X obj 29 44 pack f f;
#X msg -33 98 \; \$1-data resize \$2 \; \$1-hist resize \$2 \;;
#X connect 3 0 36 0;
#X connect 5 0 35 0;
#X connect 7 0 9 0;
#X connect 9 0 8 0;
#X connect 10 0 11 0;
#X connect 12 0 13 0;
#X connect 13 0 11 0;
#X connect 14 0 12 0;
#X connect 15 0 25 2;
#X connect 15 0 28 0;
#X connect 16 0 26 0;
#X connect 17 0 18 0;
#X connect 17 0 21 1;
#X connect 19 0 20 0;
#X connect 20 0 27 0;
#X connect 21 0 23 1;
#X connect 22 0 17 0;
#X connect 23 0 24 0;
#X connect 25 0 24 1;
#X connect 26 0 23 0;
#X connect 26 1 25 0;
#X connect 26 2 19 0;
#X connect 27 0 21 0;
#X connect 28 0 16 0;
#X connect 29 0 30 0;
#X connect 30 0 31 0;
#X connect 31 0 32 0;
#X connect 34 0 36 1;
#X connect 35 0 12 0;
#X connect 35 1 10 0;
#X connect 35 2 6 0;
#X connect 35 3 3 0;
#X connect 35 4 34 0;
#X connect 36 0 4 0;
#X connect 36 0 37 0;
#X coords 0 -1 1 1 300 200 1 100 100;
