#N canvas 305 25 1067 813 10;
#X obj 165 536 output~;
#X msg 283 99 reset;
#X msg 301 142 randomise;
#X obj 277 413 print activations;
#X msg 278 75 getActivations;
#X msg 316 271 initialise;
#X msg 74 339 train;
#X obj 318 392 print nmrse;
#X obj 26 591 timeroll;
#X msg 286 120 trainType leastSquares;
#X msg 296 141 trainType pseudoInverse;
#X msg 306 160 trainType ridgeRegression;
#X msg 273 32 resActivation tanh;
#X msg 277 54 resActivation linear;
#X obj 681 740 csvlog /tmp/test.txt 2;
#X msg 679 693 write;
#X msg 733 699 start;
#X msg 793 702 stop;
#X msg 841 713 clear;
#X obj 566 7 adc~;
#X obj 622 53 Scope~ 130 130 256 3 128 -1 1 0 0 0 0 102 255 51 135
135 135 0;
#X obj 557 75 rfft~;
#X obj 561 117 pack~;
#X msg 672 255 clear;
#X msg 674 211 start;
#X msg 674 231 stop;
#X msg 675 275 export trainInBuffer;
#X obj 573 350 print;
#X msg 905 270 export trainOutBuffer;
#X obj 925 70 keyup;
#X obj 878 78 key;
#X obj 801 74 bang~;
#X obj 912 100 print kd;
#X msg 751 230 init;
#X obj 561 215 list split 8;
#X obj 479 261 demux 1 2;
#X obj 486 222 hradio 15 1 0 2 empty empty empty 0 -8 0 10 -262144
-1 -1 0;
#X msg 67 254 getOutputWeights;
#X obj 260 546 print weights;
#X obj 280 450 route list;
#X obj 263 494 route outWeights;
#X msg 317 293 washout 500;
#X obj 947 127 print ku;
#X msg 902 250 clear -0.5;
#X obj 828 146 sel 167;
#X msg 265 7 readoutActivation linear;
#X obj 793 310 multiTable \$0-outs 2 10000 1000;
#X msg 799 225 0.7 -0.5;
#X obj 829 429 print;
#X msg 803 188 set -0.5 -0.5;
#X msg 897 187 set 0.7 -0.5;
#X msg 935 219 set -0.5 0.7;
#X obj 890 150 sel 49;
#X obj 953 153 sel 50;
#X obj 188 374 fecho 8 100 2;
#X obj 195 409 unpack 0 1;
#X obj 242 593 timeroll;
#X floatatom 107 433 5 0 0 0 - - -;
#X floatatom 196 462 5 0 0 0 - - -;
#X msg 315 248 spectralRadius 0.1;
#X msg 309 180 resParams -0.5 0.6 0.2;
#X msg 310 204 inputParams -0.003 0.002 0.2;
#X msg 312 226 fbParams -0.1 0.1 0.1;
#X obj 562 302 multiTable \$0-ins 8 10000 1000;
#X connect 1 0 54 0;
#X connect 2 0 54 0;
#X connect 4 0 54 0;
#X connect 5 0 54 0;
#X connect 6 0 54 0;
#X connect 9 0 54 0;
#X connect 10 0 54 0;
#X connect 11 0 54 0;
#X connect 12 0 54 0;
#X connect 13 0 54 0;
#X connect 15 0 14 0;
#X connect 16 0 14 0;
#X connect 17 0 14 0;
#X connect 18 0 14 0;
#X connect 19 0 20 0;
#X connect 19 0 21 0;
#X connect 21 0 22 0;
#X connect 22 0 34 0;
#X connect 23 0 63 0;
#X connect 24 0 46 0;
#X connect 24 0 63 0;
#X connect 25 0 46 0;
#X connect 25 0 63 0;
#X connect 26 0 63 0;
#X connect 28 0 46 0;
#X connect 30 0 44 0;
#X connect 30 0 52 0;
#X connect 30 0 53 0;
#X connect 31 0 47 0;
#X connect 34 0 35 0;
#X connect 35 0 54 0;
#X connect 35 1 63 0;
#X connect 36 0 35 1;
#X connect 37 0 54 0;
#X connect 39 0 40 0;
#X connect 40 0 38 0;
#X connect 41 0 54 0;
#X connect 43 0 46 0;
#X connect 44 0 49 0;
#X connect 45 0 54 0;
#X connect 46 0 27 0;
#X connect 46 0 54 0;
#X connect 47 0 46 0;
#X connect 49 0 47 0;
#X connect 49 0 48 0;
#X connect 50 0 47 0;
#X connect 51 0 47 0;
#X connect 52 0 50 0;
#X connect 53 0 51 0;
#X connect 54 0 55 0;
#X connect 54 1 3 0;
#X connect 54 2 7 0;
#X connect 54 3 39 0;
#X connect 55 0 8 0;
#X connect 55 0 57 0;
#X connect 55 1 56 0;
#X connect 55 1 58 0;
#X connect 59 0 54 0;
#X connect 60 0 54 0;
#X connect 61 0 54 0;
#X connect 62 0 54 0;
#X connect 63 0 27 0;
#X connect 63 0 54 0;
