#N canvas 305 25 1067 813 10;
#X obj 165 536 output~;
#X obj 195 409 unpack 0;
#X msg 283 99 reset;
#X msg 301 142 randomise;
#X obj 277 413 print activations;
#X msg 278 75 getActivations;
#X msg 316 271 initialise;
#X msg 319 360 train;
#X msg 312 226 fbParams -1 1 0;
#X msg 309 180 resParams -0.5 0.6 0.2;
#X obj 318 392 print nmrse;
#X msg 315 248 spectralRadius 0.9;
#X obj 26 591 timeroll;
#X msg 286 120 trainType leastSquares;
#X msg 296 141 trainType pseudoInverse;
#X msg 306 160 trainType ridgeRegression;
#X msg 273 32 resActivation tanh;
#X msg 277 54 resActivation linear;
#X obj 681 740 csvlog /tmp/test.txt 2;
#X msg 679 693 write;
#X msg 733 699 start;
#X msg 793 702 stop;
#X msg 841 713 clear;
#X obj 566 7 adc~;
#X obj 622 53 Scope~ 130 130 256 3 128 -1 1 0 0 0 0 102 255 51 135
135 135 0;
#X obj 557 75 rfft~;
#X obj 561 117 pack~;
#X msg 672 255 clear;
#X msg 674 211 start;
#X msg 674 231 stop;
#X msg 675 275 export trainInBuffer;
#X obj 573 350 print;
#X msg 902 250 clear;
#X msg 905 270 export trainOutBuffer;
#X obj 925 70 keyup;
#X obj 878 78 key;
#X obj 801 74 bang~;
#X obj 889 115 print kd;
#X obj 947 127 print ku;
#X floatatom 841 210 5 0 0 0 - - -;
#X obj 865 140 sel 49;
#X obj 857 165 1;
#X obj 915 141 t b;
#X obj 912 169 -1;
#X msg 751 230 init;
#X msg 315 340 washout 100;
#X obj 561 215 list split 8;
#X obj 793 310 multiTable \$0-outs 1 10000 1000;
#X obj 188 374 fecho 8 100 1;
#X obj 479 261 demux 1 2;
#X obj 486 222 hradio 15 1 0 2 empty empty empty 0 -8 0 10 -262144
-1 -1 1;
#X msg 310 204 inputParams -0.01 0.03 0.2;
#X msg 265 7 roActivation sigmoid;
#X obj 562 302 multiTable \$0-ins 8 10000 1000;
#X connect 1 0 12 0;
#X connect 2 0 48 0;
#X connect 3 0 48 0;
#X connect 5 0 48 0;
#X connect 6 0 48 0;
#X connect 7 0 48 0;
#X connect 8 0 48 0;
#X connect 9 0 48 0;
#X connect 11 0 48 0;
#X connect 13 0 48 0;
#X connect 14 0 48 0;
#X connect 15 0 48 0;
#X connect 16 0 48 0;
#X connect 17 0 48 0;
#X connect 19 0 18 0;
#X connect 20 0 18 0;
#X connect 21 0 18 0;
#X connect 22 0 18 0;
#X connect 23 0 24 0;
#X connect 23 0 25 0;
#X connect 25 0 26 0;
#X connect 26 0 46 0;
#X connect 27 0 53 0;
#X connect 28 0 47 0;
#X connect 28 0 53 0;
#X connect 29 0 47 0;
#X connect 29 0 53 0;
#X connect 30 0 53 0;
#X connect 32 0 47 0;
#X connect 33 0 47 0;
#X connect 34 0 38 0;
#X connect 34 0 42 0;
#X connect 35 0 37 0;
#X connect 35 0 40 0;
#X connect 36 0 39 0;
#X connect 39 0 47 0;
#X connect 40 0 41 0;
#X connect 41 0 39 0;
#X connect 42 0 43 0;
#X connect 43 0 39 0;
#X connect 45 0 48 0;
#X connect 46 0 49 0;
#X connect 47 0 31 0;
#X connect 47 0 48 0;
#X connect 48 0 1 0;
#X connect 48 1 4 0;
#X connect 48 2 10 0;
#X connect 49 0 48 0;
#X connect 49 1 53 0;
#X connect 50 0 49 1;
#X connect 51 0 48 0;
#X connect 52 0 48 0;
#X connect 53 0 31 0;
#X connect 53 0 48 0;
