#N canvas 187 22 1067 813 10;
#X obj 471 138 output~;
#X msg 283 99 reset;
#X msg 301 142 randomise;
#X msg 107 108 getActivations;
#X msg 316 271 initialise;
#X msg 74 339 train;
#X obj 318 392 print nmrse;
#X obj 26 591 timeroll;
#X msg 286 120 trainType leastSquares;
#X msg 296 141 trainType pseudoInverse;
#X msg 306 160 trainType ridgeRegression;
#X msg 768 686 write;
#X msg 828 699 start;
#X msg 888 702 stop;
#X msg 936 713 clear;
#X obj 631 120 Scope~ 118 56 256 3 128 -1 1 0 0 0 0 102 255 51 135
135 135 0;
#X obj 556 91 rfft~;
#X obj 561 191 pack~;
#X msg 672 255 clear;
#X msg 674 211 start;
#X msg 674 231 stop;
#X msg 675 275 export trainInBuffer;
#X obj 573 350 print;
#X msg 905 270 export trainOutBuffer;
#X obj 772 160 bang~;
#X msg 751 230 init;
#X obj 479 261 demux 1 2;
#X obj 486 222 hradio 15 1 0 2 empty empty empty 0 -8 0 10 -262144
-1 -1 0;
#X msg 67 254 getOutputWeights;
#X obj 260 546 print weights;
#X obj 263 494 route outWeights;
#X msg 317 293 washout 500;
#X obj 793 310 multiTable \$0-outs 2 10000 1000;
#X obj 195 409 unpack 0 1;
#X obj 242 593 timeroll;
#X floatatom 107 433 5 0 0 0 - - -;
#X floatatom 196 462 5 0 0 0 - - -;
#X obj 82 11 tgl 15 0 empty empty empty 17 7 0 10 -262144 -1 -1 0 1
;
#N canvas 0 22 450 278 (subpatch) 0;
#X array array1 100 float 3;
#A 0 -0.215784 0.263594 0.134892 0.445723 -0.318127 0.0544227 -0.663956
-0.321625 -0.214803 -0.265865 0.483589 0.293805 -0.47512 0.751526 -0.43998
-0.202549 -0.815397 -0.405801 0.237707 0.0127844 0.417475 0.785574
0.0282964 0.00559309 0.373694 0.783684 0.793131 -0.528421 -0.931631
0.869197 -0.314411 0.627386 -0.511021 0.638415 -0.960791 0.112545 -0.279633
-0.526127 -0.71591 0.445524 0.558059 -0.045256 0.030991 -0.796856 0.750722
-0.210188 0.336053 0.232285 -0.389069 -0.863677 -0.834872 0.420318
0.211568 -0.637947 -0.504757 -0.195574 0.392502 0.811141 0.673563 -0.675796
0.17992 0.736578 0.581344 -0.193412 -0.0672537 -0.584157 0.160272 -0.399352
0.538046 0.0328997 -0.504745 -0.00758769 -0.682764 0.179258 0.0157138
-0.892505 0.153249 0.594908 0.146704 -0.566806 -0.886561 -0.0509445
-0.929149 0.434608 -0.320563 0.590039 0.1186 0.752573 0.457578 0.0432741
0.679955 0.303192 -0.106762 -0.0106707 -0.455445 -0.392853 0.679497
0.134253 0.440599 0.42525;
#X coords 0 1 100 -1 200 140 1 0 0;
#X restore 833 388 graph;
#N canvas 469 323 836 468 samples 0;
#X obj 500 58 inlet play2;
#X obj 578 106 samplecontainer;
#X obj 694 43 bng 15 250 50 0 empty empty empty 17 7 0 10 -262144 -1
-1;
#X obj 493 339 tabplay~;
#X obj 530 387 outlet~;
#X obj 493 121 bng 15 250 50 0 empty empty empty 17 7 0 10 -262144
-1 -1;
#X msg 550 298 set \$1;
#X obj 284 30 bng 15 250 50 0 empty empty empty 17 7 0 10 -262144 -1
-1;
#X obj 29 304 tabplay~;
#X obj 16 410 outlet~;
#X obj 83 108 bng 15 250 50 0 empty empty empty 17 7 0 10 -262144 -1
-1;
#X msg 119 243 set \$1;
#X obj 90 45 inlet play1;
#X obj 168 93 samplecontainer;
#X obj 114 435 outlet sample1Start;
#X obj 246 436 outlet sample2Start;
#X obj 396 437 outlet sampleStop;
#X obj 146 356 spigot~;
#X msg 227 343 0;
#X msg 275 311 1;
#X obj 150 325 *~ 0.5;
#N canvas 582 367 322 183 cheapGaussianNoise 0;
#X obj 74 142 outlet~;
#N canvas 647 446 234 232 unoise 0;
#X obj 67 53 noise~;
#X obj 72 102 expr~ ($v1 + 1) / 2;
#X obj 96 175 outlet~;
#X connect 0 0 1 0;
#X connect 1 0 2 0;
#X restore 35 26 pd unoise;
#N canvas 647 446 234 232 unoise 0;
#X obj 67 53 noise~;
#X obj 72 102 expr~ ($v1 + 1) / 2;
#X obj 96 175 outlet~;
#X connect 0 0 1 0;
#X connect 1 0 2 0;
#X restore 102 29 pd unoise;
#N canvas 647 446 234 232 unoise 0;
#X obj 67 53 noise~;
#X obj 72 102 expr~ ($v1 + 1) / 2;
#X obj 96 175 outlet~;
#X connect 0 0 1 0;
#X connect 1 0 2 0;
#X restore 178 30 pd unoise;
#X obj 65 86 expr~ (($v1 + $v2 + $v3) - 1.5) / 1.5;
#X connect 1 0 4 0;
#X connect 2 0 4 1;
#X connect 3 0 4 2;
#X connect 4 0 0 0;
#X restore 143 282 pd cheapGaussianNoise;
#X obj 84 410 outlet~ noise;
#X connect 0 0 5 0;
#X connect 1 2 6 0;
#X connect 2 0 1 2;
#X connect 3 0 4 0;
#X connect 3 1 16 0;
#X connect 3 1 18 0;
#X connect 5 0 3 0;
#X connect 5 0 15 0;
#X connect 5 0 19 0;
#X connect 6 0 3 0;
#X connect 7 0 13 2;
#X connect 8 0 9 0;
#X connect 8 1 18 0;
#X connect 10 0 8 0;
#X connect 10 0 14 0;
#X connect 10 0 19 0;
#X connect 11 0 8 0;
#X connect 12 0 10 0;
#X connect 13 2 11 0;
#X connect 17 0 22 0;
#X connect 18 0 17 1;
#X connect 19 0 17 1;
#X connect 20 0 17 0;
#X connect 21 0 20 0;
#X restore 537 28 pd samples;
#X obj 593 6 bng 15 250 50 0 empty empty empty 17 7 0 10 -262144 -1
-1;
#X obj 527 6 bng 15 250 50 0 empty empty empty 17 7 0 10 -262144 -1
-1;
#X obj 562 302 multiTable \$0-ins 32 10000 1000;
#X msg 277 74 randomise;
#X msg 265 7 readoutActivation linear;
#X msg 700 86 set 0.5 0;
#X msg 799 87 set 0 0.5;
#X msg 894 87 set 0 0;
#X msg 799 225 0 0;
#X msg 902 250 clear 0;
#X obj 562 141 /~ 32;
#X obj 558 119 cartopol~;
#X obj 71 73 bng 15 250 50 0 empty empty empty 17 7 0 10 -262144 -1
-1;
#X msg 312 226 fbParams -0.1 0.2 0;
#X msg 310 204 inputParams -0.1 0.1 0.3;
#X msg 309 180 resParams -1 1 0.3;
#X obj 400 69 spigot~;
#X obj 401 458 tabset array1;
#X msg 281 55 simType li;
#X msg 315 248 spectralRadius 1.1;
#X obj 532 399 timeroll;
#X obj 89 37 metro 20;
#X obj 562 164 +~ 2.5;
#X msg 273 32 resActivation tanh;
#X obj 85 503 hip 0.01;
#X obj 191 522 hip 0.01;
#X msg 175 40 leakrate 0.001;
#X msg 163 563 200;
#X obj 452 481 mean_n 50;
#X obj 467 614 timeroll;
#X obj 447 562 mean_n 50;
#X msg 679 402 500;
#X obj 813 643 pack f f f f;
#X obj 838 551 +;
#X obj 553 639 timeroll;
#X obj 814 610 diff_n;
#X obj 824 577 * 100;
#X obj 188 374 fecho 32 400 2;
#X obj 984 4 block~ 64;
#X obj 430 404 print;
#X obj 450 306 split 10;
#X obj 561 215 list split 32;
#X obj 776 740 csvlog /tmp/drumRec.csv 4;
#X obj 280 450 route list;
#X connect 1 0 77 0;
#X connect 2 0 77 0;
#X connect 3 0 77 0;
#X connect 4 0 77 0;
#X connect 5 0 77 0;
#X connect 8 0 77 0;
#X connect 9 0 77 0;
#X connect 10 0 77 0;
#X connect 11 0 82 0;
#X connect 12 0 82 0;
#X connect 13 0 82 0;
#X connect 14 0 82 0;
#X connect 16 0 51 0;
#X connect 16 1 51 1;
#X connect 17 0 80 0;
#X connect 17 0 81 0;
#X connect 18 0 42 0;
#X connect 19 0 32 0;
#X connect 19 0 42 0;
#X connect 20 0 32 0;
#X connect 20 0 42 0;
#X connect 21 0 42 0;
#X connect 23 0 32 0;
#X connect 24 0 48 0;
#X connect 26 0 77 0;
#X connect 26 1 42 0;
#X connect 27 0 26 1;
#X connect 27 0 56 1;
#X connect 28 0 77 0;
#X connect 30 0 29 0;
#X connect 31 0 77 0;
#X connect 32 0 22 0;
#X connect 32 0 77 0;
#X connect 33 0 35 0;
#X connect 33 0 64 0;
#X connect 33 0 7 0;
#X connect 33 0 68 0;
#X connect 33 0 72 0;
#X connect 33 1 36 0;
#X connect 33 1 65 0;
#X connect 33 1 34 0;
#X connect 33 1 70 0;
#X connect 33 1 72 1;
#X connect 37 0 61 0;
#X connect 39 0 16 0;
#X connect 39 0 0 0;
#X connect 39 0 0 1;
#X connect 39 0 15 0;
#X connect 39 1 56 0;
#X connect 39 2 45 0;
#X connect 39 3 46 0;
#X connect 39 4 47 0;
#X connect 39 5 16 0;
#X connect 39 5 0 0;
#X connect 39 5 0 1;
#X connect 39 5 15 0;
#X connect 40 0 39 1;
#X connect 41 0 39 0;
#X connect 42 0 22 0;
#X connect 42 0 77 0;
#X connect 43 0 77 0;
#X connect 44 0 77 0;
#X connect 45 0 48 0;
#X connect 46 0 48 0;
#X connect 47 0 48 0;
#X connect 48 0 32 0;
#X connect 49 0 32 0;
#X connect 50 0 62 0;
#X connect 51 0 50 0;
#X connect 52 0 3 0;
#X connect 53 0 77 0;
#X connect 54 0 77 0;
#X connect 55 0 77 0;
#X connect 56 1 16 0;
#X connect 56 1 0 0;
#X connect 56 1 0 1;
#X connect 58 0 77 0;
#X connect 59 0 77 0;
#X connect 61 0 3 0;
#X connect 62 0 17 0;
#X connect 63 0 77 0;
#X connect 66 0 77 0;
#X connect 67 0 7 1;
#X connect 67 0 34 1;
#X connect 68 0 72 2;
#X connect 68 0 60 0;
#X connect 68 0 73 0;
#X connect 70 0 69 0;
#X connect 70 0 72 3;
#X connect 70 0 73 1;
#X connect 71 0 60 1;
#X connect 71 0 69 1;
#X connect 72 0 82 0;
#X connect 73 0 76 0;
#X connect 73 0 74 0;
#X connect 76 0 75 0;
#X connect 77 0 33 0;
#X connect 77 1 57 0;
#X connect 77 2 6 0;
#X connect 77 3 83 0;
#X connect 81 0 26 0;
#X connect 83 0 30 0;
