#N canvas 119 46 912 699 10;
#X msg 207 118 reset;
#X msg 7 125 getActivations;
#X msg 211 255 initialise;
#X msg 124 8 train;
#X obj 33 461 timeroll;
#X msg 166 8 getOutputWeights;
#X obj 109 392 print weights;
#X obj 196 357 route outWeights;
#X floatatom 76 433 10 0 0 0 - - -;
#X obj 11 32 tgl 15 0 empty empty empty 17 7 0 10 -262144 -1 -1 1 1
;
#N canvas 0 22 450 278 (subpatch) 0;
#X array \$0-activations 50 float 3;
#A 0 -0.00663782 -0.00282745 -0.00115911 0.00286195 0.00562686 0.00277496
0.00714807 -0.000680231 0.00584116 0.00777192 0.00448908 -0.000722913
-0.0061771 -0.00484275 0.00342511 0.00399113 0.00180295 0.00542309
-0.00394191 -0.00206201 -0.00759025 -0.00017563 -0.000735358 -0.00119233
0.00912042 -0.00649996 -0.000259749 0.00224566 -0.00433087 -0.0108412
-0.00868774 0.0022163 -0.00385717 -0.00558261 0.00647718 0.0086596
-0.00295557 -0.00636696 0.00088338 -0.000892659 0.0086768 -0.0069298
0.000470668 -0.000753222 -0.00612655 0.00211119 0.00389908 -0.00595558
-0.00226858 -0.000871047;
#X coords 0 1 50 -1 200 140 1 0 0;
#X restore 361 462 graph;
#X obj 11 55 metro 40;
#X msg 206 95 randomise;
#X obj 36 74 bng 15 250 50 0 empty empty empty 17 7 0 10 -262144 -1
-1;
#X obj 525 106 vsl 40 128 0 5 0 0 empty empty Input 0 -9 0 10 -228856
-1 -1 0 1;
#X obj 592 66 arraySearch;
#X msg 197 71 simType sim;
#X obj 196 305 route list;
#X msg 210 166 inputParams -1 1 0.1;
#X msg 209 142 resParams -0.5 0.6 0.2;
#X msg 176 29 readoutActivation tanh;
#X msg 185 50 resActivation tanh;
#X floatatom 372 273 5 0 0 0 - - -;
#X obj 64 343 tabset \$0-activations;
#X obj 434 28 vsl 30 128 0 2 0 0 empty empty Scale 0 -9 0 10 -262144
-1 -1 6200 1;
#X msg 432 188 resScale \$1;
#X obj 551 298 print;
#X obj 9 98 s clock;
#X obj 492 24 r clock;
#X msg 611 318 setOutputWeights;
#X obj 610 348 list append;
#X obj 610 378 list trim;
#X obj 612 288 t l b;
#X obj 611 410 s outWeights;
#X obj 211 210 r outWeights;
#X obj 355 28 vsl 30 128 0 0.1 0 0 empty empty Noise 0 -9 0 10 -262144
-1 -1 0 1;
#X obj 12 286 fecho 1 50 1;
#X msg 356 189 noise \$1;
#X obj 10 9 loadbang;
#X obj 220 394 s getWeights;
#X obj 584 4 r getWeights;
#X msg 210 189 fbParams -0 0 0;
#X connect 0 0 36 0;
#X connect 1 0 36 0;
#X connect 2 0 36 0;
#X connect 3 0 36 0;
#X connect 5 0 36 0;
#X connect 7 0 6 0;
#X connect 7 0 39 0;
#X connect 9 0 11 0;
#X connect 11 0 1 0;
#X connect 11 0 27 0;
#X connect 12 0 36 0;
#X connect 13 0 1 0;
#X connect 14 0 22 0;
#X connect 15 0 26 0;
#X connect 15 0 32 0;
#X connect 16 0 36 0;
#X connect 17 0 7 0;
#X connect 18 0 36 0;
#X connect 19 0 36 0;
#X connect 20 0 36 0;
#X connect 21 0 36 0;
#X connect 22 0 36 0;
#X connect 24 0 25 0;
#X connect 25 0 36 0;
#X connect 28 0 14 0;
#X connect 29 0 30 0;
#X connect 30 0 31 0;
#X connect 31 0 33 0;
#X connect 32 0 30 1;
#X connect 32 1 29 0;
#X connect 34 0 36 0;
#X connect 35 0 37 0;
#X connect 36 0 8 0;
#X connect 36 0 4 0;
#X connect 36 1 23 0;
#X connect 36 3 17 0;
#X connect 37 0 36 0;
#X connect 38 0 9 0;
#X connect 40 0 15 0;
#X connect 41 0 36 0;
