#N canvas 561 233 321 280 10;
#X obj 59 62 t l b;
#X obj 67 105 iter;
#X obj 102 141 counter;
#X obj 59 24 inlet listIn;
#X obj 72 199 tabwrite \$1;
#X obj 168 63 bng 15 250 50 0 empty empty empty 17 7 0 10 -262144 -1
-1;
#X obj 173 102 print \$1;
#X connect 0 0 1 0;
#X connect 0 1 2 2;
#X connect 1 0 2 0;
#X connect 1 0 4 0;
#X connect 2 0 4 1;
#X connect 3 0 0 0;
#X connect 5 0 6 0;
