#N canvas 491 36 804 716 10;
#X obj 708 181 iemguts/sendcanvas;
#X msg 646 101 obj 100 100 f 10;
#X obj 101 96 bng 15 250 50 0 empty empty empty 17 7 0 10 -262144 -1
-1;
#X obj 72 226 t f f;
#X obj 101 128 t b b;
#X msg 142 158 clear;
#X obj 72 192 - 1;
#X obj 107 246 expr 10 + ($f1 * 20);
#X obj 72 158 uzi \$2;
#X msg 28 401 obj 10 \$2 table \$3-\$1;
#X obj 135 337 symbol \$1;
#X obj 107 280 loadbang;
#X symbolatom 115 367 10 0 0 0 - - -;
#X obj 17 366 t l l;
#X obj 167 298 f \$3;
#X obj 232 188 - 1;
#X obj 156 129 uzi \$2;
#X obj 383 401 tabwrite;
#X obj 347 298 pack f s;
#X msg 347 332 set \$2-\$1;
#X floatatom 7 20 5 0 0 0 - - -;
#X obj 339 179 iter;
#X obj 342 219 t f b;
#X msg 397 192 0;
#X obj 397 226 counter;
#X obj 430 146 counter;
#X obj 328 146 t b l b;
#X msg 438 119 0;
#X obj 390 96 t b b;
#X obj 295 124 spigot;
#X msg 304 78 1;
#X msg 337 80 0;
#X obj 341 108 tgl 15 0 empty empty empty 17 7 0 10 -262144 -1 -1 0
1;
#X obj 366 54 loadbang;
#X obj 577 499 outlet names;
#X obj 617 337 - 1;
#X obj 617 303 uzi \$2;
#X obj 617 390 pack f s s;
#X msg 589 446 \$2 \$1 \$3-\$1;
#X obj 605 82 t b a;
#X obj 661 321 symbol;
#X obj 40 62 loadbang;
#X obj 191 -4 inlet methods;
#X obj 209 301 f \$4;
#X obj 8 337 pack f f s f f;
#X obj 46 575 print;
#X obj 179 420 print as;
#X msg 14 458 \; \$3-\$1 resize \$4 \; \$3-\$1 xticks 0 \$5 \$5 \;
\$3-\$1 yticks 0 0.1 0.5 \;;
#N canvas 146 503 450 300 \$0-data 0;
#X obj 10 10 table 1002-outs-0;
#X obj 10 30 table 1002-outs-1;
#X restore 97 1 pd \$0-data;
#X obj 253 360 s pd-\$0-data;
#X obj 86 538 s pd-\$0-data;
#X obj 142 192 s pd-\$0-data;
#X obj 194 28 route init clear list start stop float export;
#X obj 490 99 spigot;
#X obj 488 131 t b f b;
#X msg 511 183 0;
#X obj 337 490 bng 15 250 50 0 empty empty empty 17 7 0 10 -262144
-1 -1;
#X obj 324 592 print;
#X obj 292 536 symbol \$1;
#X obj 367 543 f \$2;
#X obj 7 -21 r \$0-ct;
#X obj 446 178 s \$0-ct;
#X obj 186 367 s \$0-dn;
#X obj 397 267 r \$0-dn;
#X obj 661 355 r \$0-dn;
#X obj 261 213 r \$0-dn;
#X msg 264 187 0;
#X obj 192 98 route bang float;
#X obj 240 266 pack f s f;
#X obj 206 66 t b a;
#X msg 244 298 \; \$2-\$1 const \$3;
#X obj 47 22 bng 15 250 50 0 empty empty empty 17 7 0 10 -262144 -1
-1;
#X msg 71 -45 vis 1;
#X obj 129 -37 s pd-\$0-data;
#X connect 1 0 0 0;
#X connect 2 0 4 0;
#X connect 3 0 44 0;
#X connect 3 1 7 0;
#X connect 4 0 8 0;
#X connect 4 1 5 0;
#X connect 5 0 51 0;
#X connect 6 0 3 0;
#X connect 7 0 44 1;
#X connect 8 2 6 0;
#X connect 9 0 50 0;
#X connect 10 0 12 0;
#X connect 10 0 44 2;
#X connect 10 0 62 0;
#X connect 11 0 10 0;
#X connect 11 0 14 0;
#X connect 11 0 43 0;
#X connect 13 0 47 0;
#X connect 13 1 9 0;
#X connect 14 0 44 3;
#X connect 15 0 68 0;
#X connect 16 2 15 0;
#X connect 18 0 19 0;
#X connect 19 0 17 0;
#X connect 21 0 22 0;
#X connect 22 0 17 0;
#X connect 22 1 24 0;
#X connect 23 0 24 2;
#X connect 24 0 18 0;
#X connect 25 0 17 1;
#X connect 25 0 61 0;
#X connect 26 0 25 0;
#X connect 26 1 21 0;
#X connect 26 2 23 0;
#X connect 27 0 25 2;
#X connect 28 0 25 0;
#X connect 28 1 27 0;
#X connect 29 0 26 0;
#X connect 30 0 32 0;
#X connect 31 0 32 0;
#X connect 32 0 29 1;
#X connect 32 0 53 1;
#X connect 33 0 31 0;
#X connect 35 0 37 0;
#X connect 36 2 35 0;
#X connect 37 0 38 0;
#X connect 38 0 34 0;
#X connect 39 0 36 0;
#X connect 39 1 40 0;
#X connect 40 0 37 1;
#X connect 41 0 4 0;
#X connect 42 0 52 0;
#X connect 43 0 44 4;
#X connect 44 0 13 0;
#X connect 47 0 45 0;
#X connect 47 0 50 0;
#X connect 52 0 4 0;
#X connect 52 1 28 0;
#X connect 52 1 69 0;
#X connect 52 2 29 0;
#X connect 52 3 30 0;
#X connect 52 3 28 0;
#X connect 52 4 31 0;
#X connect 52 5 53 0;
#X connect 52 6 39 0;
#X connect 53 0 54 0;
#X connect 54 0 25 0;
#X connect 54 1 17 0;
#X connect 54 2 55 0;
#X connect 55 0 18 0;
#X connect 56 0 58 0;
#X connect 56 0 59 0;
#X connect 58 0 57 0;
#X connect 59 0 57 0;
#X connect 60 0 20 0;
#X connect 63 0 18 1;
#X connect 64 0 37 2;
#X connect 65 0 68 1;
#X connect 66 0 68 2;
#X connect 67 0 66 0;
#X connect 67 1 68 2;
#X connect 68 0 70 0;
#X connect 69 0 16 0;
#X connect 69 1 67 0;
#X connect 70 0 49 0;
#X connect 71 0 72 0;
#X connect 72 0 73 0;
#X coords 0 -1 1 1 85 40 1 0 0;
