#N canvas 481 154 766 613 10;
#X obj -14 54 loadbang;
#X obj 133 34 inlet~ audioIn;
#X obj 510 55 bang~;
#X obj 521 230 counter;
#X floatatom 529 279 15 0 0 3 Frames_recorded - -;
#X obj 272 35 inlet methods;
#X text 19 8 record into an array \, and resize is as needed;
#X obj 270 75 route clear start stop;
#X obj 58 52 bng 15 250 50 0 empty empty empty 17 7 0 10 -262144 -1
-1;
#X obj 50 98 symbol \$1;
#X symbolatom 18 174 20 0 0 0 - - -;
#X obj 261 135 symbol \$1;
#X obj 402 149 tgl 15 0 empty empty empty 17 7 0 10 -262144 -1 -1 0
1;
#X obj 439 169 spigot;
#X msg 431 112 0;
#X obj 425 24 loadbang;
#X obj 153 327 tabwrite~ \$1;
#X obj 133 258 spigot~;
#X msg 240 244 start;
#X msg 306 255 stop;
#X obj 379 193 print;
#X obj 406 264 arraysize \$1;
#X floatatom 371 318 15 0 0 0 - - -;
#X msg 176 97 44100;
#X obj 214 165 pack s i;
#X msg 176 190 \; \$1 const 0 \; \$1 resize \$2 \;;
#X msg 533 154 0;
#X obj 525 198 t b i;
#X floatatom 391 405 10 0 0 0 - - -;
#X obj 588 323 iem_blocksize~;
#X floatatom 654 362 5 0 0 0 - - -;
#X obj 493 309 *;
#X obj 360 374 expr $f1 - ($f2 / 2);
#X obj 459 444 >;
#X floatatom 529 369 10 0 0 0 - - -;
#X obj 290 402 +;
#X msg 329 573 \; \$1 resize \$2;
#X obj 353 544 pack s i;
#X floatatom 227 470 10 0 0 0 - - -;
#X obj 491 549 print resize;
#X obj 596 485 change;
#X obj 451 479 change;
#X obj 443 509 sel 1;
#X obj 323 510 symbol \$1;
#X connect 0 0 9 0;
#X connect 0 0 23 0;
#X connect 1 0 17 0;
#X connect 1 0 29 0;
#X connect 2 0 13 0;
#X connect 3 0 4 0;
#X connect 3 0 31 0;
#X connect 5 0 7 0;
#X connect 7 0 11 0;
#X connect 7 0 26 0;
#X connect 7 0 23 0;
#X connect 7 1 12 0;
#X connect 7 1 18 0;
#X connect 7 2 14 0;
#X connect 7 2 19 0;
#X connect 8 0 9 0;
#X connect 9 0 10 0;
#X connect 11 0 24 0;
#X connect 12 0 13 1;
#X connect 12 0 17 1;
#X connect 12 0 20 0;
#X connect 13 0 3 0;
#X connect 13 0 21 0;
#X connect 14 0 12 0;
#X connect 15 0 14 0;
#X connect 17 1 16 0;
#X connect 18 0 16 0;
#X connect 19 0 16 0;
#X connect 21 0 22 0;
#X connect 22 0 32 0;
#X connect 22 0 35 0;
#X connect 23 0 24 1;
#X connect 23 0 32 1;
#X connect 23 0 35 1;
#X connect 24 0 25 0;
#X connect 26 0 27 0;
#X connect 27 0 3 0;
#X connect 27 1 3 2;
#X connect 28 0 33 1;
#X connect 29 0 30 0;
#X connect 29 0 31 1;
#X connect 31 0 33 0;
#X connect 31 0 34 0;
#X connect 32 0 28 0;
#X connect 33 0 41 0;
#X connect 35 0 37 1;
#X connect 35 0 38 0;
#X connect 37 0 36 0;
#X connect 41 0 42 0;
#X connect 42 0 39 0;
#X connect 42 0 43 0;
#X connect 43 0 37 0;
