#N canvas 200 216 757 572 10;
#N canvas 0 22 450 278 (subpatch) 0;
#X array \$0-sample 88200 float 2;
#X coords 0 1 88200 -1 200 100 1 0 0;
#X restore 112 137 graph;
#X obj 427 59 openpanel;
#X obj 351 243 soundfiler;
#X obj 239 107 bng 20 250 50 0 empty empty load 23 7 0 14 -191407 -86277
-1;
#X obj 429 106 pack s \$0;
#X msg 433 165 read -resize \$1 \$2-sample;
#X obj 445 272 print loading;
#X floatatom 124 337 15 0 0 3 size_in_samples - -;
#X obj 48 434 outlet sampleSize;
#X obj 23 26 inlet load;
#X obj 140 300 bng 15 250 50 0 empty empty empty 17 7 0 10 -262144
-1 -1;
#X obj 273 336 samplerate~;
#X obj 184 380 expr 1 / ($f1 / $f2);
#X obj 292 314 bng 15 250 50 0 empty empty empty 17 7 0 10 -262144
-1 -1;
#X obj 212 470 outlet playbackSpeed;
#X floatatom 364 410 15 0 0 3 Playback_Speed_(Hz) - -;
#X obj 107 259 inlet getstats;
#X obj 613 54 inlet getname;
#X obj 296 278 t f b;
#X obj 637 333 f \$0;
#X msg 626 367 \$1-sample;
#X obj 634 472 outlet getname;
#X obj 629 429 pack s;
#X connect 1 0 4 0;
#X connect 2 0 18 0;
#X connect 3 0 1 0;
#X connect 4 0 5 0;
#X connect 5 0 2 0;
#X connect 5 0 6 0;
#X connect 7 0 8 0;
#X connect 7 0 12 0;
#X connect 9 0 3 0;
#X connect 10 0 7 0;
#X connect 11 0 12 1;
#X connect 12 0 14 0;
#X connect 12 0 15 0;
#X connect 13 0 11 0;
#X connect 16 0 7 0;
#X connect 16 0 13 0;
#X connect 17 0 19 0;
#X connect 18 0 7 0;
#X connect 18 1 13 0;
#X connect 18 1 19 0;
#X connect 19 0 20 0;
#X connect 20 0 22 0;
#X connect 22 0 21 0;
#X coords 0 -1 1 1 220 140 1 100 100;
